<svg width="67" height="67" viewBox="0 0 67 67" fill="none" xmlns="http://www.w3.org/2000/svg">
<rect width="67" height="67" rx="33.5" fill="#3993DD"/>
<path d="M46.373 19.6111C44.5393 21.4026 42.7132 23.1794 40.925 24.9265C40.1521 24.4823 39.4019 23.9715 38.5836 23.6013C35.4693 22.1947 32.3248 22.2021 29.2181 23.5939C26.3085 24.9043 24.3005 27.0734 23.323 30.0494C22.0955 33.788 22.732 37.2749 25.2325 40.362C27.0435 42.6051 29.453 43.9081 32.3551 44.3078C34.5222 44.604 36.6438 44.3745 38.6669 43.5749C41.516 42.4423 43.3194 40.4138 44.024 37.4674C44.0316 37.423 44.0316 37.3711 44.0392 37.2823C40.6749 37.2823 37.3258 37.2823 33.9539 37.2823C33.9539 34.8911 33.9539 32.5443 33.9539 30.1531C34.1206 30.1457 34.2797 30.1309 34.4388 30.1309C39.993 30.1309 45.5546 30.1383 51.1088 30.1161C51.5407 30.1161 51.6316 30.3012 51.6922 30.6343C52.0104 32.2704 52.0786 33.9139 51.9119 35.5722C51.7149 37.4822 51.3209 39.3404 50.5935 41.1319C49.1538 44.6928 46.7897 47.4912 43.4254 49.4604C39.4474 51.7924 35.1284 52.4587 30.5972 51.7036C26.2327 50.9707 22.5729 48.92 19.6481 45.67C17.7689 43.5823 16.4656 41.1837 15.7003 38.5038C14.935 35.8239 14.8062 33.0995 15.2684 30.3678C15.8292 27.0808 17.2234 24.1418 19.4283 21.5877C22.0122 18.5968 25.2401 16.5684 29.1196 15.6134C33.8706 14.4437 38.4548 14.9323 42.8041 17.205C44.0922 17.8787 45.2819 18.6857 46.373 19.6111Z" fill="white"/>
</svg>
