<svg width="12" height="12" viewBox="0 0 12 12" fill="none" xmlns="http://www.w3.org/2000/svg">
<g id="location_on">
<mask id="mask0_1412_511" style="mask-type:alpha" maskUnits="userSpaceOnUse" x="0" y="0" width="12" height="12">
<rect id="Bounding box" width="12" height="12" fill="#D9D9D9"/>
</mask>
<g mask="url(#mask0_1412_511)">
<path id="location_on_2" d="M6 9.675C7.01667 8.74167 7.77083 7.89375 8.2625 7.13125C8.75416 6.36875 9 5.69167 9 5.1C9 4.19167 8.71041 3.44792 8.13125 2.86875C7.55208 2.28958 6.84167 2 6 2C5.15833 2 4.44792 2.28958 3.86875 2.86875C3.28958 3.44792 3 4.19167 3 5.1C3 5.69167 3.24583 6.36875 3.7375 7.13125C4.22917 7.89375 4.98333 8.74167 6 9.675ZM6 10.6625C5.88333 10.6625 5.76667 10.6417 5.65 10.6C5.53333 10.5583 5.42917 10.4958 5.3375 10.4125C4.79583 9.9125 4.31667 9.425 3.9 8.95C3.48333 8.475 3.13542 8.01459 2.85625 7.56875C2.57708 7.12292 2.36458 6.69375 2.21875 6.28125C2.07292 5.86875 2 5.475 2 5.1C2 3.85 2.40208 2.85417 3.20625 2.1125C4.01042 1.37083 4.94167 1 6 1C7.05833 1 7.98958 1.37083 8.79375 2.1125C9.59791 2.85417 10 3.85 10 5.1C10 5.475 9.92708 5.86875 9.78125 6.28125C9.63541 6.69375 9.42291 7.12292 9.14375 7.56875C8.86458 8.01459 8.51666 8.475 8.1 8.95C7.68333 9.425 7.20416 9.9125 6.6625 10.4125C6.57083 10.4958 6.46667 10.5583 6.35 10.6C6.23333 10.6417 6.11667 10.6625 6 10.6625ZM6 6C6.275 6 6.51042 5.90208 6.70625 5.70625C6.90208 5.51042 7 5.275 7 5C7 4.725 6.90208 4.48958 6.70625 4.29375C6.51042 4.09792 6.275 4 6 4C5.725 4 5.48958 4.09792 5.29375 4.29375C5.09792 4.48958 5 4.725 5 5C5 5.275 5.09792 5.51042 5.29375 5.70625C5.48958 5.90208 5.725 6 6 6Z" fill="black" fill-opacity="0.7"/>
</g>
</g>
</svg>
