<svg width="82" height="30" viewBox="0 0 82 30" fill="none" xmlns="http://www.w3.org/2000/svg">
<g clip-path="url(#clip0_67_408)">
<path d="M34.0189 15.9128V28.5176H30.7331V26.6437L30.5117 26.9568C30.1054 27.5282 29.5573 27.9897 28.9185 28.2983C28.2551 28.6219 27.4258 28.7902 26.4397 28.7902C24.9859 28.7902 23.8323 28.3857 23.0113 27.5823C22.1903 26.7788 21.7673 25.5078 21.7673 23.799V15.9128H25.2505V23.2528C25.2505 24.9988 26.035 25.8848 27.5833 25.8848C28.4956 25.8848 29.2212 25.5871 29.7462 24.9948C30.2712 24.4025 30.5316 23.5587 30.5316 22.4599V15.9111L34.0189 15.9128Z" fill="#3993DD"/>
<path d="M40.1606 20.8857H36.6775V28.5187H40.1606V20.8857Z" fill="#3993DD"/>
<path d="M40.4401 17.5159C40.4401 18.071 40.2602 18.5119 39.8903 18.8655C39.5204 19.2191 39.0237 19.393 38.4058 19.393C37.788 19.393 37.2954 19.215 36.9371 18.8663C36.5788 18.5176 36.3972 18.0629 36.3972 17.5159C36.3972 16.969 36.5797 16.5143 36.9371 16.1648C37.2945 15.8152 37.7888 15.6396 38.4058 15.6396C39.0228 15.6396 39.5221 15.816 39.8903 16.1656C40.2585 16.5151 40.4401 16.9601 40.4401 17.5159Z" fill="#3993DD"/>
<path d="M52.9024 10.5049V17.5933L52.6852 17.3158C52.2621 16.7846 51.71 16.3647 51.0788 16.0941C50.4079 15.7931 49.6233 15.6402 48.75 15.6402C47.9118 15.6334 47.0804 15.7882 46.3036 16.0957C45.5657 16.3914 44.898 16.832 44.3422 17.3902C43.7658 17.9824 43.3219 18.685 43.0385 19.4534C42.7275 20.2625 42.5708 21.1922 42.5708 22.2116C42.5708 23.2311 42.7275 24.1591 43.0385 24.9706C43.3223 25.7386 43.7662 26.4408 44.3422 27.033C44.8977 27.5916 45.5654 28.0323 46.3036 28.3275C47.0802 28.6355 47.9117 28.7903 48.75 28.7831C49.6971 28.7831 50.5306 28.6091 51.2297 28.2636C51.894 27.9468 52.4618 27.4659 52.8767 26.8687L53.099 26.5451V28.5096H56.4163V10.5049H52.9024ZM52.0988 24.8921C51.4528 25.5499 50.6061 25.8849 49.5893 25.8849C48.5726 25.8849 47.7267 25.5499 47.0806 24.8921C46.4346 24.2343 46.1095 23.3355 46.1095 22.2157C46.1095 21.0959 46.4362 20.1929 47.0806 19.5392C47.725 18.8854 48.5734 18.5472 49.5893 18.5472C50.6052 18.5472 51.4528 18.8806 52.0988 19.5392C52.7449 20.1978 53.07 21.0975 53.07 22.2157C53.07 23.3338 52.744 24.2352 52.0988 24.8921Z" fill="#3993DD"/>
<path d="M71.3531 18.9175C71.0446 18.2552 70.5967 17.6636 70.0386 17.1812C69.4364 16.6724 68.7364 16.2857 67.9794 16.0436C67.1154 15.7669 66.2108 15.6302 65.3015 15.6391C64.3896 15.6324 63.484 15.787 62.6286 16.0954C61.8268 16.3878 61.0935 16.8347 60.4724 17.4094C59.8494 17.9968 59.3583 18.704 59.0302 19.4863C58.6723 20.3529 58.4947 21.2803 58.5077 22.2146C58.5077 23.3036 58.701 24.2704 59.0883 25.0884C59.4452 25.8739 59.9746 26.5732 60.6391 27.1371C61.3121 27.6945 62.093 28.1143 62.9355 28.3717C63.8472 28.6538 64.7987 28.7946 65.7552 28.7892C67.8475 28.7892 69.6903 28.2463 71.2287 27.171L70.1771 24.8433C69.608 25.1959 69.0009 25.4865 68.3667 25.7098C67.6523 25.9551 66.8997 26.0772 66.1425 26.0707C64.9814 26.0707 64.0418 25.828 63.3427 25.3538C62.6436 24.8797 62.2082 24.1402 62.0746 23.183L62.0556 23.0495H71.3622C71.5074 22.7675 71.6147 22.4684 71.6815 22.1595C71.7653 21.8194 71.811 21.4713 71.8175 21.1215C71.8256 20.3629 71.6672 19.6114 71.3531 18.9175ZM68.2166 20.8051L68.19 20.886H62.0464L62.0755 20.7461C62.2124 20.0204 62.6165 19.3687 63.2116 18.9135C63.8087 18.4531 64.5502 18.2193 65.4143 18.2193C66.3556 18.2193 67.0729 18.4321 67.539 18.8512C68.0051 19.2703 68.2514 19.8261 68.2514 20.4952C68.2552 20.5996 68.2435 20.704 68.2166 20.8051Z" fill="#3993DD"/>
<path d="M81.8937 15.8714V19.1199C81.6805 19.0786 81.4641 19.0389 81.2485 19.0114C80.9736 18.9744 80.6965 18.9561 80.4191 18.9564C80.0246 18.949 79.6331 19.0255 79.2719 19.1806C78.9107 19.3357 78.5885 19.5656 78.3276 19.8545C77.7778 20.4484 77.4983 21.3157 77.4983 22.4331V28.5174H74.0151V15.9126H77.3026V18.2841L77.5315 17.8132C77.8914 17.0753 78.3691 16.5405 78.9504 16.2257C79.5462 15.9073 80.2158 15.7432 80.8952 15.7492C81.3463 15.7492 81.6814 15.7904 81.8937 15.8714Z" fill="#3993DD"/>
<path d="M11.0242 13.5943C12.4578 13.3673 13.4313 12.0494 13.1986 10.6507C12.9659 9.2521 11.6151 8.30232 10.1815 8.52935C8.74787 8.75638 7.77434 10.0743 8.00705 11.4729C8.23976 12.8716 9.59058 13.8213 11.0242 13.5943Z" fill="#E36161"/>
<path d="M21.0914 10.7786V10.1508C20.947 7.49091 19.7462 4.99056 17.7437 3.18006C15.7412 1.36957 13.0945 0.391363 10.365 0.452935C7.63559 0.514508 5.0381 1.61101 3.12351 3.50987C1.20891 5.40873 0.127849 7.96056 0.109619 10.6241C0.109619 10.6799 0.109619 10.7366 0.109619 10.7932C0.109619 10.7932 0.109619 10.7997 0.109619 10.8118C0.12587 11.3168 0.181317 11.8199 0.275483 12.3167C0.276672 12.3229 0.276672 12.3292 0.275483 12.3353C0.666921 15.1421 1.89846 22.0873 5.57068 27.0931C6.14332 27.8751 6.89926 28.5122 7.77548 28.9513C8.65169 29.3904 9.62281 29.6188 10.6079 29.6174C11.5929 29.6161 12.5634 29.385 13.4383 28.9435C14.3133 28.502 15.0674 27.8629 15.6378 27.0794C18.1257 23.6812 19.4916 18.9488 20.2347 15.9139H10.5988V19.3121H15.6867C15.686 19.3159 15.686 19.3197 15.6867 19.3234C15.1891 20.7207 14.563 23.0088 13.7793 24.4442C13.4864 24.9809 13.0497 25.43 12.5157 25.7435C11.9817 26.057 11.3705 26.2231 10.7473 26.2242H10.4653C9.84553 26.2245 9.23722 26.0611 8.70499 25.7512C8.17275 25.4414 7.73646 24.9967 7.44245 24.4644C4.98767 19.9942 4.1003 14.4365 3.79345 12.1662L3.64749 10.8053C3.65329 10.8814 3.68813 11.3717 3.79345 12.1662C3.70952 11.7237 3.66072 11.2754 3.64749 10.8256V10.7924C3.64749 10.7357 3.64749 10.6799 3.64749 10.6233C3.66518 8.87347 4.37399 7.19774 5.62634 5.94501C6.87868 4.69227 8.57805 3.95908 10.3706 3.89808C12.1632 3.83709 13.9108 4.45299 15.2495 5.61756C16.5883 6.78213 17.415 8.4056 17.5576 10.15V10.7778L21.0914 10.7786Z" fill="#E36161"/>
</g>
<defs>
<clipPath id="clip0_67_408">
<rect width="82" height="30" fill="white"/>
</clipPath>
</defs>
</svg>
