<svg xmlns="http://www.w3.org/2000/svg" width="42" height="46" viewBox="0 0 42 46" fill="none">
<g filter="url(#filter0_d_1382_1002)">
<mask id="mask0_1382_1002" style="mask-type:alpha" maskUnits="userSpaceOnUse" x="11" y="12" width="20" height="20">
<rect x="11" y="12" width="20" height="20" fill="#D9D9D9"/>
</mask>
<g mask="url(#mask0_1382_1002)">
<path d="M21.7882 22.0004L18.394 18.6061C18.2786 18.4908 18.2196 18.3457 18.2169 18.1711C18.2142 17.9964 18.2733 17.8487 18.394 17.728C18.5147 17.6072 18.6611 17.5469 18.8331 17.5469C19.0051 17.5469 19.1514 17.6072 19.2722 17.728L23.0173 21.4732C23.0953 21.5512 23.1504 21.6334 23.1824 21.72C23.2145 21.8065 23.2305 21.9 23.2305 22.0004C23.2305 22.1008 23.2145 22.1943 23.1824 22.2808C23.1504 22.3674 23.0953 22.4496 23.0173 22.5276L19.2722 26.2728C19.1568 26.3882 19.0118 26.4472 18.8371 26.4499C18.6624 26.4526 18.5147 26.3935 18.394 26.2728C18.2733 26.1521 18.2129 26.0057 18.2129 25.8337C18.2129 25.6617 18.2733 25.5154 18.394 25.3946L21.7882 22.0004Z" fill="black"/>
</g>
</g>
<defs>
<filter id="filter0_d_1382_1002" x="0.212891" y="0.546875" width="41.0176" height="44.9023" filterUnits="userSpaceOnUse" color-interpolation-filters="sRGB">
<feFlood flood-opacity="0" result="BackgroundImageFix"/>
<feColorMatrix in="SourceAlpha" type="matrix" values="0 0 0 0 0 0 0 0 0 0 0 0 0 0 0 0 0 0 127 0" result="hardAlpha"/>
<feOffset dy="1"/>
<feGaussianBlur stdDeviation="9"/>
<feComposite in2="hardAlpha" operator="out"/>
<feColorMatrix type="matrix" values="0 0 0 0 0 0 0 0 0 0 0 0 0 0 0 0 0 0 0.08 0"/>
<feBlend mode="normal" in2="BackgroundImageFix" result="effect1_dropShadow_1382_1002"/>
<feBlend mode="normal" in="SourceGraphic" in2="effect1_dropShadow_1382_1002" result="shape"/>
</filter>
</defs>
</svg>