<svg width="28" height="28" viewBox="0 0 28 28" fill="none" xmlns="http://www.w3.org/2000/svg">
<g id="person FILL wght400">
<path id="Vector" d="M14.0003 13.9993C12.717 13.9993 11.6184 13.5424 10.7045 12.6285C9.7906 11.7146 9.33366 10.616 9.33366 9.33268C9.33366 8.04935 9.7906 6.95074 10.7045 6.03685C11.6184 5.12296 12.717 4.66602 14.0003 4.66602C15.2837 4.66602 16.3823 5.12296 17.2962 6.03685C18.21 6.95074 18.667 8.04935 18.667 9.33268C18.667 10.616 18.21 11.7146 17.2962 12.6285C16.3823 13.5424 15.2837 13.9993 14.0003 13.9993ZM4.66699 23.3327V20.066C4.66699 19.4049 4.83713 18.7973 5.17741 18.2431C5.51769 17.6889 5.96977 17.266 6.53366 16.9743C7.73921 16.3716 8.96421 15.9195 10.2087 15.6181C11.4531 15.3167 12.717 15.166 14.0003 15.166C15.2837 15.166 16.5475 15.3167 17.792 15.6181C19.0364 15.9195 20.2614 16.3716 21.467 16.9743C22.0309 17.266 22.483 17.6889 22.8232 18.2431C23.1635 18.7973 23.3337 19.4049 23.3337 20.066V23.3327H4.66699Z" fill="black" fill-opacity="0.7"/>
</g>
</svg>
